<svg width="26" height="26" viewBox="0 0 26 26" fill="none" xmlns="http://www.w3.org/2000/svg">
<path fill-rule="evenodd" clip-rule="evenodd" d="M4.6665 12.9999C4.6665 12.4246 5.13287 11.9583 5.70817 11.9583H20.2915C20.8668 11.9583 21.3332 12.4246 21.3332 12.9999C21.3332 13.5752 20.8668 14.0416 20.2915 14.0416H5.70817C5.13287 14.0416 4.6665 13.5752 4.6665 12.9999Z" fill="white"/>
<path fill-rule="evenodd" clip-rule="evenodd" d="M12.2636 4.97185C12.6704 4.56505 13.3299 4.56505 13.7367 4.97185L21.0284 12.2635C21.4352 12.6703 21.4352 13.3299 21.0284 13.7367L13.7367 21.0283C13.3299 21.4351 12.6704 21.4351 12.2636 21.0283C11.8568 20.6215 11.8568 19.962 12.2636 19.5552L18.8187 13.0001L12.2636 6.44498C11.8568 6.03819 11.8568 5.37864 12.2636 4.97185Z" fill="white"/>
</svg>
