<svg width="252" height="252" viewBox="0 0 252 252" fill="none" xmlns="http://www.w3.org/2000/svg">
<path d="M206.46 50.1539L114.018 51.6982L115.125 118.933L207.567 117.388L206.46 50.1539Z" fill="#1C4606"/>
<path opacity="0.3" d="M169.817 50.7565L113.927 51.6902L115.033 118.925L170.923 117.991L169.817 50.7565Z" fill="white"/>
<path opacity="0.3" d="M178.239 55.289L162.143 55.6133L162.233 60.1333L178.328 59.809L178.239 55.289Z" fill="white"/>
<path opacity="0.3" d="M178.717 107.57L162.624 107.839L162.698 112.358L178.791 112.089L178.717 107.57Z" fill="white"/>
<path d="M189.446 93.1888C194.663 93.1888 198.892 88.3681 198.892 82.4214C198.892 76.4748 194.663 71.6541 189.446 71.6541C184.229 71.6541 180 76.4748 180 82.4214C180 88.3681 184.229 93.1888 189.446 93.1888Z" stroke="white" stroke-miterlimit="10"/>
<path d="M189.839 73.2947V75.1027" stroke="white" stroke-linecap="round" stroke-linejoin="round"/>
<path d="M190.248 89.8555V91.6635" stroke="white" stroke-linecap="round" stroke-linejoin="round"/>
<path d="M181.483 82.0664H183.286" stroke="white" stroke-linecap="round" stroke-linejoin="round"/>
<path d="M195.952 82.0742H197.754" stroke="white" stroke-linecap="round" stroke-linejoin="round"/>
<path d="M189.831 82.0664L189.839 76.4971" stroke="white" stroke-width="0.5" stroke-linecap="round" stroke-linejoin="round"/>
<path d="M190.184 82.4297L194.093 86.3686" stroke="white" stroke-width="0.5" stroke-linecap="round" stroke-linejoin="round"/>
<path d="M190.704 82.0739C190.704 82.2479 190.653 82.418 190.557 82.5627C190.461 82.7074 190.325 82.8202 190.165 82.8867C190.005 82.9533 189.83 82.9708 189.66 82.9368C189.491 82.9029 189.335 82.8191 189.213 82.696C189.091 82.573 189.008 82.4162 188.974 82.2456C188.941 82.0749 188.958 81.898 189.024 81.7372C189.09 81.5765 189.202 81.4391 189.346 81.3424C189.489 81.2457 189.658 81.1941 189.831 81.1941C189.946 81.1931 190.06 81.2151 190.166 81.2589C190.273 81.3027 190.369 81.3675 190.451 81.4494C190.532 81.5313 190.596 81.6287 190.64 81.736C190.683 81.8432 190.705 81.9581 190.704 82.0739Z" fill="white"/>
<path opacity="0.3" d="M189.446 96.0399C196.353 96.0399 201.952 89.9435 201.952 82.4233C201.952 74.903 196.353 68.8066 189.446 68.8066C182.539 68.8066 176.94 74.903 176.94 82.4233C176.94 89.9435 182.539 96.0399 189.446 96.0399Z" fill="white"/>
<path d="M85.5825 200.509C86.9766 201.582 114.961 198.547 107.727 148.528C107.727 148.528 121.002 151.926 122.428 151.7C122.428 151.7 141.905 181.783 127.724 196.683C113.543 211.583 92.4085 212.495 92.4085 212.495L85.5825 200.509Z" fill="#1C4606"/>
<path opacity="0.3" d="M85.5825 200.509C86.9766 201.582 114.961 198.547 107.727 148.528C107.727 148.528 121.002 151.926 122.428 151.7C122.428 151.7 141.905 181.783 127.724 196.683C113.543 211.583 92.4085 212.495 92.4085 212.495L85.5825 200.509Z" fill="#FFE8A3"/>
<path d="M116.596 156.268C116.668 156.268 108.777 156.421 106.133 153.112C103.489 149.803 101.702 143.886 106.509 139.85C111.316 135.815 139.541 118.38 152.833 117.008C166.124 115.636 180.353 124.272 180.353 124.272L162.952 137.235L125.481 146.372L116.596 156.268Z" fill="#1C4606"/>
<path d="M91.0791 192.63L91.8082 199.862L100.429 199.127L99.1309 191.693L91.0791 192.63Z" fill="#FE8D27"/>
<path d="M89.4043 199.339L101.911 199.161L102.8 205.521C102.8 205.521 91.0867 205.683 86.2717 205.037C81.4567 204.391 82.2097 201.865 82.2097 201.865C82.2097 201.865 87.85 202.002 89.4043 199.339Z" fill="#1C4606"/>
<path d="M198.546 217.642C200.413 199.153 189.334 182.874 173.799 181.282C158.264 179.689 144.157 193.386 142.29 211.875C140.422 230.364 151.502 246.644 167.037 248.236C182.571 249.828 196.679 236.131 198.546 217.642Z" fill="#1C4606"/>
<path d="M150.766 111.835C150.766 111.835 152.064 141.837 134.742 142.693C117.421 143.548 98.8098 141.635 98.8098 141.635L104.266 195.545L88.026 196.554C88.026 196.554 76.369 150.821 74.5343 139.327C72.6996 127.833 74.2939 119.705 86.3355 114.604C98.3771 109.503 150.766 111.835 150.766 111.835Z" fill="#1C4606"/>
<path d="M53.8324 207.021L75.4079 143.885L104.25 111.809C104.25 111.809 79.0772 111.906 66.9796 118.912C54.8819 125.918 54.4332 134.337 52.214 144.354C49.9947 154.37 41.0938 201.782 41.0938 201.782L53.8324 207.021Z" fill="#1C4606"/>
<path opacity="0.7" d="M150.766 111.834C150.766 111.834 123.959 110.632 104.298 111.834C104.298 111.834 79.1253 111.931 67.0276 118.937C54.93 125.943 54.4332 134.338 52.214 144.354C49.9947 154.371 41.0938 201.783 41.0938 201.783L53.8324 207.021L75.4079 143.886C79.0372 161.385 88.0263 196.52 88.0263 196.52L104.266 195.544L98.802 141.667C98.802 141.667 117.405 143.579 134.735 142.724C152.064 141.868 150.766 111.834 150.766 111.834Z" fill="#FFE8A3"/>
<path d="M106.509 63.1709L96.5505 64.3897C96.5505 64.3897 94.82 82.8331 93.2096 86.4168C93.2096 86.4168 62.5809 90.6543 50.0345 90.2911L43.6652 94.6497L43.4409 102.229L49.682 102.414L51.693 97.612C51.693 97.612 55.9071 97.4263 56.8846 95.0371C56.8846 95.0371 89.4281 102.955 101.414 93.9152C101.43 93.9233 108.656 83.2286 106.509 63.1709Z" fill="#FE8D27"/>
<path d="M135.047 13.7822C135.047 13.7822 138.163 17.818 136.978 21.3129C136.65 22.3096 136.074 23.2046 135.303 23.9115C134.533 24.6184 133.595 25.1133 132.579 25.3487C132.579 25.3487 131.994 30.9422 128.718 31.1036C125.441 31.2651 126.538 18.7785 126.538 18.7785L135.047 13.7822Z" fill="#1C4606"/>
<path d="M109.818 111.971L107.631 75.9152L94.0591 66.8267C94.0591 66.8267 98.4976 51.0631 106.99 48.3914C115.482 45.7197 134.005 39.5935 145.238 42.6364C156.47 45.6794 155.18 59.0296 153.25 68.9333L151.086 69.4499C151.086 69.4499 150.75 108.476 150.734 111.833L109.818 111.971Z" fill="#1C4606"/>
<path d="M134.238 44.864C129.791 49.1984 120.722 51.7813 118.214 49.6262C115.707 47.4711 118.871 45.4936 121.227 43.056C122.501 41.7162 122.46 39.2059 122.164 37.2042C122.008 36.1956 121.778 35.2 121.475 34.2258C113.151 33.7657 109.698 29.843 109.353 22.9257C109.009 16.0084 112.117 7.97732 112.117 7.97732L117.998 2.92456C117.998 2.92456 126.01 4.13528 132.419 8.5746C136.233 11.1898 135.103 16.3394 133.525 20.1411C132.856 21.7593 132.052 23.3173 131.121 24.7983C130.224 34.2662 134.238 44.864 134.238 44.864Z" fill="#FE8D27"/>
<path d="M113.984 24.833C113.984 24.833 117.189 24.9863 118.591 22.9846" stroke="#1C4606" stroke-linecap="round" stroke-linejoin="round"/>
<path d="M119.087 16.6633C119.087 17.2768 118.719 17.761 118.286 17.753C117.854 17.7449 117.541 17.2364 117.557 16.623C117.573 16.0095 117.926 15.5252 118.358 15.5333C118.791 15.5414 119.112 16.0499 119.087 16.6633Z" fill="#1C4606"/>
<path d="M111.781 16.8557C111.781 17.4691 111.412 17.9534 110.98 17.9453C110.547 17.9373 110.235 17.4288 110.251 16.8153C110.267 16.2019 110.619 15.7176 111.052 15.7257C111.484 15.7338 111.805 16.2503 111.781 16.8557Z" fill="#1C4606"/>
<path d="M114.32 21.8707L113.992 16.9229L111.645 21.6205C112.011 21.9342 112.464 22.1265 112.943 22.1713C113.422 22.2161 113.903 22.1111 114.32 21.8707Z" fill="#FE8D27"/>
<path d="M118.703 12.7903C119.318 12.6202 119.972 12.6753 120.55 12.9457C121.128 13.2162 121.592 13.6845 121.86 14.2673" stroke="#1C4606" stroke-linecap="round" stroke-linejoin="round"/>
<path d="M109.521 13.7005C109.521 13.7005 110.996 12.0862 112.726 12.4979" stroke="#1C4606" stroke-linecap="round" stroke-linejoin="round"/>
<path d="M133.581 20.1425C124.415 20.4735 123.278 10.0047 123.278 10.0047C118.743 12.4262 112.149 7.98686 112.149 7.98686L118.03 2.91797C118.03 2.91797 126.042 4.14484 132.451 8.56801C136.289 11.1912 135.159 16.357 133.581 20.1425Z" fill="#1C4606"/>
<path d="M109.201 11.0535C109.201 11.0535 104.458 7.87336 106.549 5.58106C108.64 3.28875 121.451 7.64736 131.025 12.9907C131.025 12.9907 109.097 -1.78822 103.136 2.88517C98.209 6.75142 109.137 12.119 108.809 12.1109L109.201 11.0535Z" fill="#1C4606"/>
<path d="M135.952 9.97242C135.939 11.6461 135.624 13.3034 135.023 14.8637L113.487 4.37081C114.38 3.33288 115.449 2.46368 116.644 1.80407C117.918 1.06958 119.304 0.551457 120.746 0.27049C122.275 -0.0239484 123.839 -0.0783995 125.385 0.109063C133.26 1.02114 135.992 7.12318 135.952 9.97242Z" fill="#1C4606"/>
<path d="M86.4798 106.484C85.0777 107.961 66.9473 104.175 63.7826 105.87C62.4447 106.58 61.8598 109.099 60.5139 111.859C58.6792 115.612 55.4184 119.729 46.894 120.003C32.0884 120.48 33.875 105.346 32.7053 100.43C32.7053 100.43 18.6848 97.8552 17.9477 95.3772C17.2106 92.8993 18.1159 92.528 18.1159 92.528C18.1159 92.528 35.4132 95.7566 38.7621 91.3495C39.4109 90.7111 40.1715 90.1993 41.0054 89.8402C42.9277 88.9888 44.9953 88.5201 47.0943 88.46C53.1912 88.1371 60.626 89.8644 62.7091 93.7548C66.9392 101.689 85.0777 99.9053 86.7442 101.988C88.4106 104.07 87.8818 105.007 86.4798 106.484Z" fill="#1C4606"/>
<path d="M40.5811 116.823C40.5811 116.823 16.2576 150.723 36.2869 202.906" stroke="#1C4606" stroke-linecap="round" stroke-linejoin="round"/>
<path d="M72.6835 134.435C72.6835 134.435 72.6835 134.499 72.6835 134.628C72.6835 134.757 72.6835 134.83 72.6835 134.975V135.056C72.3942 138.321 71.8585 141.559 71.0812 144.742C69.9756 149.448 68.5094 153.927 67.2997 157.527C62.1722 172.823 62.765 189.305 62.765 189.305C61.0666 187.174 57.958 185.656 54.0723 184.591C39.9237 180.676 15.9046 182.775 15.9046 182.775C11.1937 166.123 12.8762 140.06 17.563 125.467C22.2499 110.874 35.2448 114.167 35.2448 114.167C35.2448 114.167 48.9609 114.571 50.6834 114.385C53.836 114 57.0268 114.065 60.1612 114.579C70.7527 116.532 73.3004 124.967 72.6835 134.435Z" fill="#1C4606"/>
<path d="M178.286 197.964C154.251 219.822 107.855 222.114 73.3329 219.693L53.9927 184.638L46.1572 170.441L71.33 136.258L72.6599 134.458C72.6599 134.458 72.6599 134.523 72.6599 134.652C72.6599 134.781 72.6599 134.853 72.6599 134.999V135.08C72.3154 141.173 70.0882 190.079 87.8822 202.073L88.0264 202.178C90.4342 203.745 93.2279 204.606 96.0942 204.664C128.742 205.616 127.829 162.692 119.528 153.499L176.179 142.029C176.179 142.029 187.363 170.4 178.286 197.964Z" fill="#1C4606"/>
<path d="M115.274 144.193C115.274 144.193 109.962 148.633 112.702 154.589C115.442 160.546 141.857 148.98 152.256 146.873C162.655 144.766 174.689 142.708 179.864 141.635C185.04 140.561 184.591 125.605 180.361 124.281C176.131 122.957 134.694 130.334 127.82 134.386C123.281 137.163 119.072 140.454 115.274 144.193Z" fill="#1C4606"/>
<path d="M128.573 23.8398C128.068 23.2915 127.762 22.5867 127.705 21.8406C127.648 21.0944 127.844 20.3509 128.261 19.7314C129.543 17.7943 132.13 14.719 134.614 17.0194C138.091 20.248 132.154 26.116 129.695 24.6954C129.283 24.4648 128.905 24.1768 128.573 23.8398Z" fill="#FE8D27"/>
<path opacity="0.2" d="M109.201 11.0535C109.201 11.0535 104.458 7.87336 106.549 5.58106C107.479 4.56405 110.259 4.7739 114.016 5.85548C116.432 6.51082 118.799 7.3389 121.098 8.33343C124.399 9.77823 127.908 11.6266 131.025 12.9907C131.025 12.9907 109.097 -1.78822 103.136 2.88517C98.209 6.75142 108.456 11.7638 108.816 12.1028L108.993 11.449L109.201 11.0535Z" fill="#FFE8A3"/>
<path d="M111.452 9.67383C111.452 9.67383 106.645 10.481 109.962 15.6952L111.452 9.67383Z" fill="#1C4606"/>
<path d="M116.059 6.49479C116.059 6.49479 108.809 3.92806 106.79 5.38093C104.771 6.8338 106.886 9.60231 109.193 11.031L111.044 11.2731L112.133 7.9638L114.954 7.61673L116.059 6.49479Z" fill="#1C4606"/>
<path opacity="0.3" d="M125.938 2.54687L124.199 5.13782L116.644 1.82851C117.919 1.09401 119.304 0.575889 120.746 0.294922L125.938 2.54687Z" fill="white"/>
<path opacity="0.1" d="M124.255 33.5176C123.755 34.8572 123.038 36.1037 122.132 37.2063C121.976 36.1976 121.745 35.2021 121.443 34.2279C122.414 34.1595 123.366 33.919 124.255 33.5176Z" fill="#FFE8A3"/>
<path d="M52.4301 104.498C52.1096 110.091 49.7061 114.668 46.7578 115.798C46.2476 115.996 45.7012 116.081 45.1554 116.048C41.5181 115.838 38.8743 110.342 39.2428 103.78C39.6113 97.2174 42.8641 92.0678 46.5014 92.2777C47.9836 92.3584 49.2895 93.3189 50.307 94.8606C51.8051 97.0721 52.6464 100.607 52.4301 104.498Z" fill="#F5F5F5"/>
<path d="M52.4304 104.498C52.1099 110.091 49.7064 114.668 46.7581 115.798C43.3932 115.604 40.9496 110.527 41.2941 104.498C41.6386 98.4682 44.635 93.6818 47.9999 93.8756C48.8669 93.9408 49.6874 94.2959 50.3313 94.8845C51.8054 97.0719 52.6467 100.607 52.4304 104.498Z" fill="white"/>
<path d="M182.276 183.785C176.083 179.402 152.12 175.1 152.12 175.1C137.563 175.1 124.784 188.296 123.022 205.82C121.579 220.074 127.829 233.013 137.899 238.913C137.899 238.913 138.74 239.268 140.151 239.825C145.486 241.948 159.026 247.089 167.03 248.219" fill="#1C4606"/>
<path opacity="0.3" d="M198.546 217.642C200.413 199.153 189.334 182.874 173.799 181.282C158.264 179.689 144.157 193.386 142.29 211.875C140.422 230.364 151.502 246.644 167.037 248.236C182.571 249.828 196.679 236.131 198.546 217.642Z" fill="#FFE8A3"/>
<path d="M73.9967 216.568C75.864 198.079 64.7845 181.8 49.2498 180.207C33.7151 178.615 19.6079 192.312 17.7405 210.801C15.8732 229.29 26.9527 245.569 42.4874 247.162C58.0221 248.754 72.1293 235.057 73.9967 216.568Z" fill="#1C4606"/>
<path d="M63.1495 186.374L48.8246 246.967C46.7348 247.308 44.6094 247.37 42.5034 247.152H42.3432C39.5951 246.442 40.8209 247.209 38.0649 246.289C31.0547 243.956 20.8718 239.831 20.8718 239.831C10.08 234.545 3.98312 221.687 5.46528 206.997C7.2599 189.199 19.9344 175.905 34.8522 176.995C34.8522 176.995 41.9346 178.31 49.2252 180.223C52.4299 181.031 55.6346 181.991 58.2704 182.992C60.0156 183.935 61.6519 185.069 63.1495 186.374Z" fill="#1C4606"/>
<path opacity="0.3" d="M73.9978 216.529C72.3954 232.47 61.6838 244.844 48.809 246.935C46.7191 247.276 44.5938 247.338 42.4877 247.12H42.3275C39.3941 246.801 36.5432 245.945 33.9152 244.594C23.0914 239.065 16.2414 225.634 17.7396 210.782C19.6063 192.307 33.6829 178.626 49.2096 180.191H49.2496C52.4022 180.512 55.4616 181.453 58.2548 182.96C60.0003 183.905 61.6367 185.042 63.1339 186.35C70.8011 193.065 75.2636 204.333 73.9978 216.529Z" fill="#FFE8A3"/>
<path d="M70.096 195.302C69.6264 194.548 69.0901 193.837 68.4937 193.18C64.9125 188.256 56.7245 186.416 51.3647 186.851C47.2558 187.255 43.3109 188.681 39.8839 191C35.9742 193.551 33.1781 197.457 29.3004 200.137C21.9457 205.254 10.7854 205.109 3.39861 199.839C2.98206 199.54 2.58591 199.214 2.21288 198.862C1.46006 198.072 0.957973 197.075 0.770768 195.996C0.48815 194.65 0.590953 193.251 1.0672 191.961C2.66954 187.425 8.01335 183.437 11.3863 181.008C18.2246 176.147 26.2678 173.294 34.6202 172.767C58.439 171.112 68.5978 191.606 70.096 195.302Z" fill="#1C4606"/>
<path opacity="0.3" d="M68.4458 195.947C63.3263 188.505 56.7567 186.415 51.3969 186.851C47.2881 187.255 43.3431 188.68 39.9161 190.999C36.0064 193.55 33.2103 197.456 29.3327 200.136C21.9779 205.254 10.8176 205.108 3.43083 199.838C3.01428 199.539 2.61814 199.213 2.2451 198.861C1.49229 198.072 0.9902 197.074 0.802995 195.996C0.520377 194.649 0.623179 193.25 1.09943 191.96C3.57505 194.841 10.7856 201.783 20.5518 198.417C32.7296 194.179 35.702 181.588 48.721 181.701C59.0641 181.822 65.4334 189.894 68.4458 195.947Z" fill="#FFE8A3"/>
<g opacity="0.3">
<path d="M14.8711 178.788C18.3451 176.301 22.2538 174.496 26.3919 173.469C30.5341 172.407 34.8238 172.052 39.0825 172.42C43.3342 172.832 47.498 173.899 51.4285 175.584L52.8866 176.23L54.3127 176.948C55.2741 177.4 56.1794 177.965 57.1088 178.481C58.0381 178.998 58.8954 179.636 59.7847 180.209C60.674 180.782 61.5072 181.452 62.3564 182.089C58.8624 179.731 55.1326 177.748 51.2282 176.173C47.3314 174.598 43.2252 173.611 39.0424 173.243C34.8682 172.841 30.657 173.114 26.5682 174.05C24.5154 174.509 22.5032 175.135 20.5514 175.923C18.5706 176.691 16.6683 177.651 14.8711 178.788Z" fill="#FFE8A3"/>
</g>
<g opacity="0.3">
<path d="M40.8133 173.016C39.8143 169.65 39.2146 166.177 39.0267 162.669C38.7623 159.174 38.7062 155.663 38.7783 152.176C38.8505 148.689 39.0908 145.17 39.4113 141.683L39.9961 136.469C40.2525 134.733 40.4768 132.998 40.7973 131.271L40.0682 141.763L39.7798 146.994C39.7317 148.737 39.6276 150.481 39.6196 152.224C39.4834 155.711 39.5475 159.198 39.6757 162.717C39.7317 164.46 39.8679 166.196 40.0442 167.931C40.1849 169.642 40.4419 171.341 40.8133 173.016Z" fill="#FFE8A3"/>
</g>
<path opacity="0.3" d="M87.8421 202.001C71.1137 191.161 70.4487 163.193 71.0175 144.742C71.1217 141.57 71.2499 138.688 71.346 136.21C71.5215 133.73 71.5215 131.24 71.346 128.76C69.6555 116.088 60.0415 114.562 60.0415 114.562H60.0816C70.7291 116.532 73.2768 124.967 72.6599 134.435C72.6599 134.435 72.6599 134.499 72.6599 134.628C72.6599 134.757 72.6599 134.83 72.6599 134.975V135.056C72.2994 141.15 70.0722 190.055 87.8421 202.001Z" fill="#FFE8A3"/>
<path opacity="0.2" d="M86.4797 106.483C85.0776 107.96 66.9472 104.174 63.7825 105.869C62.4446 106.58 61.8597 109.098 60.5138 111.858C56.7322 117.912 51.4125 118.864 51.084 118.913C57.4293 114.07 59.1999 102.415 56.0513 95.0454C52.9027 87.6761 41.6302 89.589 40.9893 89.807C42.9115 88.9556 44.9792 88.4869 47.0782 88.4267C53.1751 88.1039 60.6099 89.8312 62.693 93.7217C66.9231 101.656 85.0616 99.8721 86.7281 101.955C88.3945 104.037 87.8817 105.006 86.4797 106.483Z" fill="#FFE8A3"/>
<path d="M72.2833 99.4365C71.1812 101.486 70.7415 103.831 71.0255 106.144L86.3839 107.887C87.1691 106.972 87.7493 105.897 88.0853 104.735C88.4212 103.574 88.5049 102.353 88.3307 101.156C88.3307 101.156 73.1165 99.6141 72.2833 99.4365Z" fill="#1C4606"/>
<path d="M25.6469 98.8624C25.6469 98.8624 24.1167 95.5854 25.9514 93.511C21.8494 93.1397 19.3097 92.7038 16.6658 92.3164C16.2732 93.5191 16.0809 94.6733 17.467 96.5055C18.853 98.3377 25.6469 98.8624 25.6469 98.8624Z" fill="#1C4606"/>
<path d="M17.1145 119.374C14.4546 123.741 12.1793 130.731 11.979 141.893" stroke="#1C4606" stroke-linecap="round" stroke-linejoin="round"/>
<path d="M25.8713 112.174C23.9362 112.626 22.1571 113.594 20.7197 114.975" stroke="#1C4606" stroke-linecap="round" stroke-linejoin="round"/>
<path d="M145.35 70.0964L135.239 71.3394C135.239 71.3394 133.477 90.0572 131.842 93.6975C131.842 93.6975 100.749 98.0076 88.0023 97.6283L81.5368 102.051L81.3125 109.752L87.6498 109.937L89.6927 105.094C89.6927 105.094 93.971 104.909 94.9564 102.479C94.9564 102.479 127.997 110.551 140.166 101.349C140.158 101.317 147.505 90.4608 145.35 70.0964Z" fill="#FE8D27"/>
<path opacity="0.2" d="M63.0216 214.109C62.7332 224.263 56.1315 232.302 48.272 232.076C47.2157 232.044 46.1692 231.862 45.1635 231.535C38.8663 229.517 34.3317 222.035 34.58 213.277C34.8284 204.802 39.4672 197.796 45.5641 195.851C46.7823 195.456 48.0584 195.273 49.3376 195.31C57.1971 195.544 63.318 203.987 63.0216 214.109Z" fill="#FAFAFA"/>
<path d="M55.787 214.108C55.5387 222.777 50.98 229.904 45.1635 231.559C38.8663 229.541 34.3317 222.059 34.58 213.301C34.8284 204.826 39.4672 197.82 45.5641 195.875C51.6209 197.53 56.0354 205.133 55.787 214.108Z" fill="#1C4606"/>
<path opacity="0.2" d="M186.466 214.915C186.17 225.069 179.568 233.117 171.717 232.883C170.66 232.855 169.613 232.673 168.608 232.342C162.303 230.324 157.768 222.85 158.025 214.084C158.265 205.617 162.904 198.603 169.001 196.658C170.219 196.263 171.495 196.08 172.774 196.117C180.634 196.351 186.754 204.778 186.466 214.915Z" fill="#FAFAFA"/>
<path d="M179.231 214.914C178.975 223.575 174.424 230.702 168.608 232.357C162.303 230.339 157.768 222.865 158.025 214.099C158.265 205.632 162.904 198.618 169.001 196.673C175.065 198.328 179.488 205.931 179.231 214.914Z" fill="#1C4606"/>
<path d="M198.852 188.165C198.988 198.15 183.902 204.76 158.658 208.925C151.853 210.131 144.898 210.212 138.067 209.167C126.851 207.303 121.371 202.525 121.371 202.525C121.371 202.525 124.223 168.019 152.448 163.644C171.677 160.674 186.146 168.487 193.484 176.906C196.937 180.861 198.812 184.969 198.852 188.165Z" fill="#1C4606"/>
<path opacity="0.3" d="M198.852 188.167C198.988 198.152 183.902 204.762 158.657 208.927C151.853 210.133 144.898 210.214 138.067 209.169C139.277 199.798 144.709 175.221 168.32 172.67C179.031 171.508 187.299 173.687 193.484 176.908C196.937 180.863 198.812 184.971 198.852 188.167Z" fill="#FFE8A3"/>
<g opacity="0.3">
<path d="M123.005 202.68C123.525 197.983 124.637 193.372 126.314 188.958C127.964 184.499 130.241 180.302 133.076 176.496C134.509 174.604 136.118 172.855 137.883 171.273C139.632 169.666 141.559 168.269 143.627 167.109C147.743 164.771 152.302 163.337 157.007 162.903C154.702 163.292 152.434 163.881 150.229 164.663C149.116 165.002 148.066 165.527 147.024 165.97C145.979 166.475 144.961 167.032 143.972 167.641C142.963 168.222 142.033 168.925 141.08 169.578C140.126 170.232 139.245 171.007 138.404 171.822C136.693 173.389 135.134 175.116 133.749 176.98C130.935 180.713 128.641 184.816 126.931 189.176C126.043 191.348 125.278 193.568 124.64 195.827C123.96 198.076 123.414 200.365 123.005 202.68Z" fill="#FFE8A3"/>
</g>
<path d="M85.126 191.283L86.7924 196.981L104.266 195.512L104.498 187.546L85.126 191.283Z" fill="#1C4606"/>
<path d="M189.158 152.417L227.606 150.844" stroke="#1C4606" stroke-linecap="round" stroke-linejoin="round"/>
<path d="M240.312 143.788L246.025 143.554" stroke="#1C4606" stroke-linecap="round" stroke-linejoin="round"/>
<path d="M207.585 145.13L235.93 143.968" stroke="#1C4606" stroke-linecap="round" stroke-linejoin="round"/>
<path d="M227.422 165.179L251.177 164.211" stroke="#1C4606" stroke-linecap="round" stroke-linejoin="round"/>
<path d="M212.736 165.783L223.087 165.355" stroke="#1C4606" stroke-linecap="round" stroke-linejoin="round"/>
</svg>
