<svg width="20" height="21" viewBox="0 0 20 21" fill="none" xmlns="http://www.w3.org/2000/svg">
<path d="M16.6665 3.83252H3.33317C2.4165 3.83252 1.67484 4.58252 1.67484 5.49919L1.6665 15.4992C1.6665 16.4159 2.4165 17.1659 3.33317 17.1659H16.6665C17.5832 17.1659 18.3332 16.4159 18.3332 15.4992V5.49919C18.3332 4.58252 17.5832 3.83252 16.6665 3.83252ZM16.3332 7.37419L10.4415 11.0575C10.1748 11.2242 9.82484 11.2242 9.55817 11.0575L3.6665 7.37419C3.45817 7.24085 3.33317 7.01585 3.33317 6.77419C3.33317 6.21585 3.9415 5.88252 4.4165 6.17419L9.99984 9.66585L15.5832 6.17419C16.0582 5.88252 16.6665 6.21585 16.6665 6.77419C16.6665 7.01585 16.5415 7.24085 16.3332 7.37419Z" fill="#FE8D27"/>
</svg>
