<svg width="16" height="19" viewBox="0 0 16 19" fill="none" xmlns="http://www.w3.org/2000/svg">
<path d="M9.43803 1.67676C6.06296 1.67676 3.33325 4.40646 3.33325 7.78153C3.33325 11.4182 7.18798 16.4329 8.77522 18.3428C9.12407 18.7614 9.76071 18.7614 10.1096 18.3428C11.6881 16.4329 15.5428 11.4182 15.5428 7.78153C15.5428 4.40646 12.8131 1.67676 9.43803 1.67676ZM9.43803 9.96181C8.23452 9.96181 7.25775 8.98505 7.25775 7.78153C7.25775 6.57802 8.23452 5.60126 9.43803 5.60126C10.6415 5.60126 11.6183 6.57802 11.6183 7.78153C11.6183 8.98505 10.6415 9.96181 9.43803 9.96181Z" fill="#FE8D27"/>
</svg>
