<svg width="24" height="29" viewBox="0 0 24 29" fill="none" xmlns="http://www.w3.org/2000/svg">
<path d="M20.1996 15.3909C20.2135 14.3058 20.5017 13.2419 21.0374 12.2982C21.573 11.3545 22.3387 10.5615 23.2631 9.99321C22.6758 9.1545 21.9011 8.46427 21.0004 7.97736C20.0997 7.49044 19.0979 7.22024 18.0746 7.18822C15.8916 6.95908 13.7752 8.4945 12.6628 8.4945C11.5288 8.4945 9.8161 7.21097 7.97175 7.24892C6.77877 7.28746 5.61612 7.63437 4.59708 8.25585C3.57804 8.87732 2.73736 9.75217 2.15695 10.7951C-0.357246 15.1481 1.51812 21.5455 3.92651 25.0641C5.13148 26.787 6.53975 28.7116 8.38243 28.6433C10.1856 28.5686 10.8591 27.4935 13.0357 27.4935C15.192 27.4935 15.8239 28.6433 17.704 28.5999C19.6388 28.5685 20.8579 26.8693 22.0206 25.1301C22.8864 23.9024 23.5526 22.5456 23.9946 21.1098C22.8704 20.6344 21.9111 19.8385 21.2363 18.8215C20.5614 17.8046 20.2009 16.6114 20.1996 15.3909Z" fill="white"/>
<path d="M16.6484 4.87416C17.7034 3.60768 18.2232 1.97985 18.0973 0.336349C16.4855 0.505636 14.9967 1.27596 13.9275 2.49384C13.4047 3.08881 13.0043 3.78097 12.7492 4.53078C12.494 5.28058 12.3892 6.07331 12.4406 6.86365C13.2468 6.87195 14.0444 6.69721 14.7732 6.3526C15.5021 6.00799 16.1433 5.50248 16.6484 4.87416Z" fill="white"/>
</svg>
