<svg width="31" height="34" viewBox="0 0 31 34" fill="none" xmlns="http://www.w3.org/2000/svg">
<path d="M21.8758 23.9101L5.84524 32.8957L5.79507 32.92C5.22643 33.2531 4.55745 33.44 3.84665 33.44C2.06548 33.44 0.568629 32.262 0.133789 30.6696C0.128214 30.6642 0.125427 30.6615 0.125427 30.6615L14.3748 15.9725L21.8758 23.9101Z" fill="#EA4335"/>
<path d="M30.79 16.7525C30.79 18.1743 29.9705 19.4173 28.7579 20.051L21.8758 23.9101L14.0486 16.3057L21.8507 9.56241L28.7663 13.4621L28.783 13.4702C29.9788 14.1039 30.79 15.3389 30.79 16.7525Z" fill="#FBBC04"/>
<path d="M14.8598 16.3463L0.125435 30.6615C0.0418115 30.3527 0 30.0359 0 29.7028V3.74535C0 3.41225 0.0418115 3.08728 0.125435 2.77855L14.8598 16.3463Z" fill="#4285F4"/>
<path d="M0.125427 2.77854C0.568629 1.17804 2.06548 0 3.84665 0C4.57417 0 5.25152 0.20311 5.83688 0.53621L21.8507 9.56241L14.4751 16.72L0.125427 2.77854Z" fill="#34A853"/>
</svg>
